<svg width="31" height="29" viewBox="0 0 31 29" fill="none" xmlns="http://www.w3.org/2000/svg">
<path d="M28.5815 0.765671H25.4964V4.36793C25.4964 5.56958 24.5189 6.23237 23.3174 6.23237H22.8805C21.6788 6.23237 20.7013 5.25475 20.7013 4.05309V0.765671H10.078V4.08288C10.078 5.28453 9.10044 6.26215 7.89878 6.26215H7.46192C6.26033 6.26215 5.28277 5.28453 5.28277 4.08288V0.765671H1.95423C0.876684 0.765671 0 1.64235 0 2.71997V26.3343C0 27.4119 0.876684 28.2886 1.95423 28.2886H28.5815C29.6591 28.2886 30.5357 27.4119 30.5357 26.3343V2.71997C30.5358 1.64242 29.6591 0.765671 28.5815 0.765671ZM28.5815 26.3343H1.95429L1.95423 8.50137H28.5819L28.5829 26.3343C28.5828 26.3343 28.5824 26.3343 28.5815 26.3343Z" fill="#007942"/>
</svg>
