<svg width="35" height="35" viewBox="0 0 35 35" fill="none" xmlns="http://www.w3.org/2000/svg">
<path id="Vector" d="M14.2187 8.75C14.8228 8.75 15.3125 9.23969 15.3125 9.84375C15.3125 10.4478 14.8228 10.9375 14.2187 10.9375H9.84375C9.23969 10.9375 8.75 10.4478 8.75 9.84375C8.75 9.23969 9.23969 8.75 9.84375 8.75H14.2187ZM9.84375 15.3125C9.23969 15.3125 8.75 14.8228 8.75 14.2187C8.75 13.6147 9.23969 13.125 9.84375 13.125H14.2187C14.8228 13.125 15.3125 13.6147 15.3125 14.2187C15.3125 14.8228 14.8228 15.3125 14.2187 15.3125H9.84375ZM9.84375 19.6875C9.23969 19.6875 8.75 19.1978 8.75 18.5938C8.75 17.9897 9.23969 17.5 9.84375 17.5H12.0312C12.6353 17.5 13.125 17.9897 13.125 18.5938C13.125 19.1978 12.6353 19.6875 12.0312 19.6875H9.84375ZM5.46875 8.75C6.07281 8.75 6.5625 9.23969 6.5625 9.84375C6.5625 10.4478 6.07281 10.9375 5.46875 10.9375C4.86469 10.9375 4.375 10.4478 4.375 9.84375C4.375 9.23969 4.86469 8.75 5.46875 8.75ZM5.46875 13.125C6.07281 13.125 6.5625 13.6147 6.5625 14.2187C6.5625 14.8228 6.07281 15.3125 5.46875 15.3125C4.86469 15.3125 4.375 14.8228 4.375 14.2187C4.375 13.6147 4.86469 13.125 5.46875 13.125ZM5.46875 19.6875C4.86469 19.6875 4.375 19.1978 4.375 18.5938C4.375 17.9897 4.86469 17.5 5.46875 17.5C6.07281 17.5 6.5625 17.9897 6.5625 18.5938C6.5625 19.1978 6.07281 19.6875 5.46875 19.6875ZM5.1875 2.1875C3.53065 2.1875 2.1875 3.53065 2.1875 5.1875V29.8125C2.1875 31.4694 3.53065 32.8125 5.1875 32.8125H12.0312C12.6353 32.8125 13.125 33.3022 13.125 33.9062C13.125 34.5103 12.6353 35 12.0312 35H3C1.34315 35 0 33.6569 0 32V3C0 1.34315 1.34315 0 3 0H17.8125C18.6082 0 19.3712 0.316071 19.9339 0.87868L27.6624 8.60719C28.1587 9.1035 28.4375 9.77664 28.4375 10.4785V12.0312C28.4375 12.6353 27.9478 13.125 27.3437 13.125C26.7397 13.125 26.25 12.6353 26.25 12.0312C26.25 11.4272 25.7603 10.9375 25.1562 10.9375H21.875H20.5C18.8431 10.9375 17.5 9.59435 17.5 7.9375V5.1875C17.5 3.53065 16.1569 2.1875 14.5 2.1875H5.1875ZM22.1912 6.24634C21.2672 5.32242 19.6875 5.97678 19.6875 7.28339C19.6875 8.09338 20.3441 8.75 21.1541 8.75C22.4607 8.75 23.1151 7.17025 22.1912 6.24634ZM30.625 16.4062C30.625 17.0103 31.1147 17.5 31.7187 17.5H32.8125C34.0206 17.5 35 18.4794 35 19.6875V32C35 33.6569 33.6569 35 32 35H18.3125C16.6556 35 15.3125 33.6569 15.3125 32V19.6875C15.3125 18.4794 16.2919 17.5 17.5 17.5H18.5938C19.1978 17.5 19.6875 17.0103 19.6875 16.4062C19.6875 15.8022 20.1772 15.3125 20.7812 15.3125C21.3853 15.3125 21.875 15.8022 21.875 16.4062C21.875 17.0103 22.3647 17.5 22.9688 17.5H27.3437C27.9478 17.5 28.4375 17.0103 28.4375 16.4062C28.4375 15.8022 28.9272 15.3125 29.5312 15.3125C30.1353 15.3125 30.625 15.8022 30.625 16.4062ZM29.8125 32.8125C31.4694 32.8125 32.8125 31.4694 32.8125 29.8125V27.0625C32.8125 25.4056 31.4694 24.0625 29.8125 24.0625H20.5C18.8431 24.0625 17.5 25.4056 17.5 27.0625V29.8125C17.5 31.4694 18.8431 32.8125 20.5 32.8125H29.8125ZM31.7187 21.875C32.3228 21.875 32.8125 21.3853 32.8125 20.7812C32.8125 20.1772 32.3228 19.6875 31.7187 19.6875H18.5938C17.9897 19.6875 17.5 20.1772 17.5 20.7812C17.5 21.3853 17.9897 21.875 18.5938 21.875H31.7187Z" fill="#007942"/>
</svg>
