<svg width="39" height="39" viewBox="0 0 39 39" fill="none" xmlns="http://www.w3.org/2000/svg">
<path d="M16.5833 20.529H29.2222M9.77777 20.529H10.75M9.77777 13.3233H10.75M9.77777 27.7347H10.75M29.2222 27.7347H22.5M14.5 27.7347H18.5278M29.2222 13.3233H23.3889M16.5833 13.3233H18.5278M37 12.2939V10.9969C37 8.54073 37 7.31164 36.6927 6.32343C36.4138 5.4057 35.9386 4.56846 35.3043 3.87682C34.6699 3.18517 33.8935 2.65776 33.0353 2.33558C32.1253 2 30.9994 2 28.7458 2H10.2542C8.00055 2 6.87472 2 5.96472 2.33558C5.10679 2.65769 4.33053 3.18483 3.69621 3.87609C3.06189 4.56734 2.58659 5.40409 2.30722 6.32137C2 7.3137 2 8.54073 2 10.9969V28.7641" stroke="#007942" stroke-width="3" stroke-linecap="round"/>
<path d="M2.00003 26.7061L2.00003 28.0031C2.00003 30.4593 2.00003 31.6884 2.30725 32.6766C2.58624 33.5943 3.06137 34.4315 3.69572 35.1232C4.33007 35.8148 5.10654 36.3422 5.96475 36.6644C6.87475 37 8.00058 37 10.2542 37L28.7458 37M33.0353 36.6644C33.8932 36.3423 34.6695 35.8152 35.3038 35.1239C35.9381 34.4327 36.4134 33.5959 36.6928 32.6786C37 31.6863 37 30.4593 37 28.0031L37 10.2359" stroke="#007942" stroke-width="3" stroke-linecap="round"/>
</svg>
