<svg width="31" height="31" viewBox="0 0 31 31" fill="none" xmlns="http://www.w3.org/2000/svg">
<path d="M30.5647 28.3866L24.8176 22.6816C27.0485 19.898 28.1288 16.3648 27.8365 12.8085C27.5442 9.25224 25.9015 5.94319 23.2461 3.56178C20.5908 1.18037 17.1246 -0.0923789 13.5604 0.00522585C9.99611 0.102831 6.60469 1.56337 4.08344 4.08654C1.56219 6.60971 0.102753 10.0037 0.00522189 13.5707C-0.0923088 17.1376 1.17948 20.6064 3.55908 23.2638C5.93868 25.9212 9.24522 27.5651 12.7988 27.8577C16.3524 28.1502 19.8829 27.069 22.6644 24.8365L28.365 30.5414C28.509 30.6867 28.6804 30.8021 28.8691 30.8808C29.0579 30.9595 29.2604 31 29.4649 31C29.6694 31 29.8718 30.9595 30.0606 30.8808C30.2494 30.8021 30.4207 30.6867 30.5647 30.5414C30.8439 30.2524 31 29.8661 31 29.464C31 29.062 30.8439 28.6757 30.5647 28.3866ZM13.9741 24.8365C11.8294 24.8365 9.73295 24.2001 7.94973 23.0076C6.16652 21.8152 4.77667 20.1204 3.95595 18.1375C3.13523 16.1546 2.92049 13.9727 3.33889 11.8676C3.75729 9.76258 4.79004 7.82898 6.30654 6.31133C7.82304 4.79368 9.75517 3.76015 11.8586 3.34143C13.9621 2.92271 16.1423 3.13761 18.1237 3.95896C20.1051 4.7803 21.7987 6.1712 22.9902 7.95577C24.1817 9.74034 24.8176 11.8384 24.8176 13.9847C24.8176 16.8628 23.6752 19.623 21.6416 21.6581C19.6081 23.6932 16.85 24.8365 13.9741 24.8365Z" fill="#007942"/>
</svg>
