<svg width="29" height="29" viewBox="0 0 29 29" fill="none" xmlns="http://www.w3.org/2000/svg">
<path d="M1.61111 16.1111H11.2778C11.7051 16.1111 12.1149 15.9414 12.417 15.6392C12.7191 15.3371 12.8889 14.9273 12.8889 14.5V1.61111C12.8889 1.18382 12.7191 0.774025 12.417 0.471883C12.1149 0.169742 11.7051 0 11.2778 0H1.61111C1.18382 0 0.774025 0.169742 0.471883 0.471883C0.169742 0.774025 0 1.18382 0 1.61111V14.5C0 14.9273 0.169742 15.3371 0.471883 15.6392C0.774025 15.9414 1.18382 16.1111 1.61111 16.1111ZM0 27.3889C0 27.8162 0.169742 28.226 0.471883 28.5281C0.774025 28.8303 1.18382 29 1.61111 29H11.2778C11.7051 29 12.1149 28.8303 12.417 28.5281C12.7191 28.226 12.8889 27.8162 12.8889 27.3889V20.9444C12.8889 20.5172 12.7191 20.1074 12.417 19.8052C12.1149 19.5031 11.7051 19.3333 11.2778 19.3333H1.61111C1.18382 19.3333 0.774025 19.5031 0.471883 19.8052C0.169742 20.1074 0 20.5172 0 20.9444V27.3889ZM16.1111 27.3889C16.1111 27.8162 16.2809 28.226 16.583 28.5281C16.8851 28.8303 17.2949 29 17.7222 29H27.3889C27.8162 29 28.226 28.8303 28.5281 28.5281C28.8303 28.226 29 27.8162 29 27.3889V16.1111C29 15.6838 28.8303 15.274 28.5281 14.9719C28.226 14.6697 27.8162 14.5 27.3889 14.5H17.7222C17.2949 14.5 16.8851 14.6697 16.583 14.9719C16.2809 15.274 16.1111 15.6838 16.1111 16.1111V27.3889ZM17.7222 11.2778H27.3889C27.8162 11.2778 28.226 11.108 28.5281 10.8059C28.8303 10.5038 29 10.094 29 9.66667V1.61111C29 1.18382 28.8303 0.774025 28.5281 0.471883C28.226 0.169742 27.8162 0 27.3889 0H17.7222C17.2949 0 16.8851 0.169742 16.583 0.471883C16.2809 0.774025 16.1111 1.18382 16.1111 1.61111V9.66667C16.1111 10.094 16.2809 10.5038 16.583 10.8059C16.8851 11.108 17.2949 11.2778 17.7222 11.2778Z" fill="#007942"/>
</svg>
